<svg width="64" height="42" viewBox="0 0 64 42" fill="none" xmlns="http://www.w3.org/2000/svg">
<g clip-path="url(#clip0_23846_397)">
<path d="M17.8164 2.50488H3.69727V17.7572H17.8164V2.50488Z" fill="white"/>
<path d="M38.8301 2.06152H24.7109V17.3139H38.8301V2.06152Z" fill="white"/>
<path d="M60.3438 2.24414H46.2246V17.4965H60.3438V2.24414Z" fill="white"/>
<path d="M17.8028 24.3853H3.68359V39.6376H17.8028V24.3853Z" fill="white"/>
<path d="M38.8047 23.9551H24.6855V39.2074H38.8047V23.9551Z" fill="white"/>
<path d="M60.3165 24.1377H46.1973V39.39H60.3165V24.1377Z" fill="white"/>
<path d="M0 0V19.9755H20.1143V0H0ZM15.138 16.0743H12.6694V10.7771H7.41878V16.0743H4.96326V3.90115H7.41878V8.83305H12.6694V3.90115H15.138V16.0874V16.0743Z" fill="#EB1D3A"/>
<path d="M21.9434 0V19.9755H42.0576V0H21.9434ZM36.8854 10.9728C36.8854 12.0949 36.6764 13.0473 36.2585 13.8171C35.8405 14.5869 35.2527 15.161 34.5083 15.5524C33.7638 15.9308 32.9148 16.1265 31.9613 16.1265C30.4985 16.1265 29.323 15.6959 28.4348 14.8218C27.5597 13.9476 27.1156 12.669 27.1156 10.9859V3.84896H29.545V10.9728C29.545 11.9253 29.754 12.6429 30.1719 13.1126C30.5899 13.5823 31.2038 13.8302 32.0005 13.8302C32.7972 13.8302 33.385 13.5953 33.816 13.1126C34.234 12.6429 34.443 11.9253 34.443 10.9728V3.84896H36.8723V10.9728H36.8854Z" fill="#EB1D3A"/>
<path d="M21.9434 21.7759V41.7514H42.0576V21.7759H21.9434ZM34.1948 37.8241H31.6348V27.9603H29.8062V25.6901H34.1948V37.8111V37.8241Z" fill="#EB1D3A"/>
<path d="M55.575 8.58537C55.8885 8.31138 56.0583 7.91996 56.0583 7.41111C56.0583 6.90226 55.9015 6.51085 55.5881 6.23685C55.2746 5.96286 54.7913 5.81934 54.1383 5.81934H51.957V8.98984H54.1774C54.7913 8.98984 55.2615 8.85937 55.5881 8.58537H55.575Z" fill="#EB1D3A"/>
<path d="M54.2819 10.751H51.957V14.1172H54.295C54.9481 14.1172 55.4444 13.9737 55.797 13.6866C56.1497 13.3996 56.3195 12.9951 56.3195 12.4471C56.3195 11.8991 56.1366 11.4816 55.784 11.1946C55.4313 10.8945 54.9219 10.751 54.2689 10.751H54.2819Z" fill="#EB1D3A"/>
<path d="M43.8848 0V19.9755H63.9991V0H43.8848ZM57.795 15.2262C57.1027 15.8264 56.097 16.1265 54.7778 16.1265H49.475V3.86201H54.6733C55.9272 3.86201 56.8807 4.13601 57.5468 4.68399C58.2129 5.23198 58.5525 5.98873 58.5525 6.98033C58.5525 7.75012 58.3566 8.37639 57.9517 8.85914C57.5468 9.34189 57.0244 9.66808 56.3713 9.8116C57.1158 9.95512 57.7166 10.3074 58.1607 10.8684C58.6048 11.4164 58.8268 12.0688 58.8268 12.7994C58.8268 13.8302 58.4742 14.6391 57.7819 15.2393L57.795 15.2262Z" fill="#EB1D3A"/>
<path d="M43.8848 21.7759V41.7514H63.9991V21.7759H43.8848ZM58.2129 37.8632H49.6709V36.0758C53.5501 33.4011 55.4962 31.183 55.4962 29.4216C55.4962 28.8867 55.3656 28.4692 55.1044 28.156C54.8431 27.8429 54.4382 27.6994 53.8897 27.6994C52.7533 27.6994 52.1525 28.4692 52.0872 30.0087H49.7362C49.8015 28.5866 50.2456 27.5037 51.0423 26.773C51.8391 26.0424 52.8578 25.677 54.0856 25.677C55.3133 25.677 56.2929 26.0032 56.9591 26.6425C57.6252 27.2819 57.9648 28.143 57.9648 29.2129C57.9648 30.0609 57.7166 30.896 57.2203 31.744C56.724 32.5921 56.084 33.375 55.3264 34.0795C54.5558 34.7971 53.746 35.3973 52.9101 35.9192H58.2129V37.8763V37.8632Z" fill="#EB1D3A"/>
<path d="M10.1094 31.8749C9.52169 31.8749 9.02537 32.0445 8.60741 32.3707C8.18945 32.7099 7.98047 33.1796 7.98047 33.8059C7.98047 34.4321 8.16333 34.941 8.52904 35.3455C8.89475 35.7499 9.43026 35.9587 10.1356 35.9587C10.7364 35.9587 11.2197 35.776 11.5854 35.4237C11.938 35.0715 12.1209 34.5757 12.1209 33.9363C12.1209 33.2709 11.938 32.7621 11.5723 32.3968C11.2066 32.0445 10.7103 31.8618 10.0964 31.8618" fill="#EB1D3A"/>
<path d="M13.9494 36.0237C13.6359 36.6239 13.1657 37.1066 12.5388 37.4589C11.9118 37.8112 11.1543 37.9808 10.2661 37.9808C8.52898 37.9808 7.32735 37.4459 6.67429 36.376C6.02122 35.3061 5.69469 33.8318 5.69469 31.9399C5.69469 29.774 6.04735 28.1692 6.75265 27.1254C7.45796 26.0816 8.60735 25.5597 10.1878 25.5597C11.4024 25.5597 12.3167 25.899 12.9698 26.5905C13.5445 27.1907 13.9494 27.9474 14.0278 28.8477H11.7551C11.7551 28.8477 11.7551 28.8346 11.7551 28.8085C11.5069 27.9083 10.9322 27.4516 10.0441 27.4516C9.26041 27.4516 8.67265 27.7908 8.32 28.4823C7.95429 29.1739 7.79755 30.2437 7.8498 31.7181C8.03265 31.1831 8.38531 30.7526 8.90775 30.4264C9.4302 30.1133 10.0441 29.9436 10.7494 29.9436C11.8988 29.9436 12.8131 30.2829 13.4661 30.9744C14.1322 31.6659 14.4588 32.6444 14.4588 33.91C14.4588 34.6929 14.302 35.3844 13.9886 35.9976M0 41.7515H20.1143V21.7891H0V41.7515Z" fill="#EB1D3A"/>
</g>
<defs>
<clipPath id="clip0_23846_397">
<rect width="64" height="42" fill="white"/>
</clipPath>
</defs>
<script xmlns=""/></svg>